<mxfile host="app.diagrams.net" modified="2022-05-12T22:28:11.709Z" agent="5.0 (Windows NT 10.0; Win64; x64) AppleWebKit/537.36 (KHTML, like Gecko) Chrome/101.0.4951.54 Safari/537.36" etag="rmt-f9rAYSkscu18HtOP" version="18.0.3" type="github">
  <diagram id="zvnki7TZUw1XnFlHZ9nP" name="Page-1">
    <mxGraphModel dx="813" dy="374" grid="1" gridSize="10" guides="1" tooltips="1" connect="1" arrows="1" fold="1" page="1" pageScale="1" pageWidth="827" pageHeight="1169" math="0" shadow="0">
      <root>
        <mxCell id="0" />
        <mxCell id="1" parent="0" />
        <mxCell id="M4f4rVje9hwKqoFKBTSC-4" value="Utilisateur" style="shape=umlActor;verticalLabelPosition=bottom;verticalAlign=top;html=1;fillColor=#fff2cc;strokeColor=#d6b656;" vertex="1" parent="1">
          <mxGeometry x="60" y="30" width="30" height="60" as="geometry" />
        </mxCell>
        <mxCell id="M4f4rVje9hwKqoFKBTSC-7" value="" style="endArrow=none;dashed=1;html=1;rounded=0;fillColor=#fff2cc;strokeColor=#d6b656;exitX=0.036;exitY=1.007;exitDx=0;exitDy=0;exitPerimeter=0;" edge="1" parent="1" source="M4f4rVje9hwKqoFKBTSC-46">
          <mxGeometry width="50" height="50" relative="1" as="geometry">
            <mxPoint x="80" y="630" as="sourcePoint" />
            <mxPoint x="80.41000000000003" y="120" as="targetPoint" />
          </mxGeometry>
        </mxCell>
        <mxCell id="M4f4rVje9hwKqoFKBTSC-14" value="View :Login" style="shape=umlLifeline;perimeter=lifelinePerimeter;whiteSpace=wrap;html=1;container=1;collapsible=0;recursiveResize=0;outlineConnect=0;size=40;" vertex="1" parent="1">
          <mxGeometry x="240" y="50" width="100" height="670" as="geometry" />
        </mxCell>
        <mxCell id="M4f4rVje9hwKqoFKBTSC-17" value="" style="html=1;points=[];perimeter=orthogonalPerimeter;" vertex="1" parent="M4f4rVje9hwKqoFKBTSC-14">
          <mxGeometry x="45" y="70" width="10" height="100" as="geometry" />
        </mxCell>
        <mxCell id="M4f4rVje9hwKqoFKBTSC-18" value="1 :&amp;nbsp; demende le&amp;nbsp; page de connection&amp;nbsp;" style="html=1;verticalAlign=bottom;endArrow=block;entryX=0;entryY=0;rounded=0;" edge="1" parent="M4f4rVje9hwKqoFKBTSC-14">
          <mxGeometry relative="1" as="geometry">
            <mxPoint x="-160" y="90" as="sourcePoint" />
            <mxPoint x="45" y="90" as="targetPoint" />
          </mxGeometry>
        </mxCell>
        <mxCell id="M4f4rVje9hwKqoFKBTSC-26" value="" style="html=1;points=[];perimeter=orthogonalPerimeter;" vertex="1" parent="M4f4rVje9hwKqoFKBTSC-14">
          <mxGeometry x="45" y="195" width="10" height="80" as="geometry" />
        </mxCell>
        <mxCell id="M4f4rVje9hwKqoFKBTSC-27" value="&lt;font style=&quot;font-size: 9px;&quot;&gt;2 :Cliquer&amp;nbsp; sur&amp;nbsp; S&#39;inscrire&lt;/font&gt;" style="html=1;verticalAlign=bottom;startArrow=none;endArrow=classicThin;startSize=8;rounded=0;startFill=0;endFill=1;" edge="1" target="M4f4rVje9hwKqoFKBTSC-26" parent="M4f4rVje9hwKqoFKBTSC-14">
          <mxGeometry relative="1" as="geometry">
            <mxPoint x="-160" y="200" as="sourcePoint" />
          </mxGeometry>
        </mxCell>
        <mxCell id="M4f4rVje9hwKqoFKBTSC-15" value="Service :&lt;br&gt;CusomerService" style="shape=umlLifeline;perimeter=lifelinePerimeter;whiteSpace=wrap;html=1;container=1;collapsible=0;recursiveResize=0;outlineConnect=0;size=40;" vertex="1" parent="1">
          <mxGeometry x="560" y="50" width="100" height="670" as="geometry" />
        </mxCell>
        <mxCell id="M4f4rVje9hwKqoFKBTSC-44" value="" style="html=1;points=[];perimeter=orthogonalPerimeter;" vertex="1" parent="M4f4rVje9hwKqoFKBTSC-15">
          <mxGeometry x="45" y="420.03" width="10" height="40" as="geometry" />
        </mxCell>
        <mxCell id="M4f4rVje9hwKqoFKBTSC-45" value="&lt;font style=&quot;font-size: 9px;&quot;&gt;&amp;nbsp;6.1 : verifier&lt;/font&gt;" style="edgeStyle=orthogonalEdgeStyle;html=1;align=left;spacingLeft=2;endArrow=block;rounded=0;entryX=1;entryY=0;" edge="1" target="M4f4rVje9hwKqoFKBTSC-44" parent="M4f4rVje9hwKqoFKBTSC-15">
          <mxGeometry relative="1" as="geometry">
            <mxPoint x="55" y="400" as="sourcePoint" />
            <Array as="points">
              <mxPoint x="85" y="400.03" />
            </Array>
          </mxGeometry>
        </mxCell>
        <mxCell id="M4f4rVje9hwKqoFKBTSC-43" value="&lt;font style=&quot;font-size: 9px;&quot;&gt;6: présenter données&lt;br&gt;soumisses utilisateur&amp;nbsp;&lt;/font&gt;" style="html=1;verticalAlign=bottom;endArrow=block;rounded=0;" edge="1" parent="M4f4rVje9hwKqoFKBTSC-15" source="M4f4rVje9hwKqoFKBTSC-16">
          <mxGeometry width="80" relative="1" as="geometry">
            <mxPoint x="-69.5" y="366" as="sourcePoint" />
            <mxPoint x="50" y="366" as="targetPoint" />
          </mxGeometry>
        </mxCell>
        <mxCell id="M4f4rVje9hwKqoFKBTSC-16" value="View : Inscription" style="shape=umlLifeline;perimeter=lifelinePerimeter;whiteSpace=wrap;html=1;container=1;collapsible=0;recursiveResize=0;outlineConnect=0;size=40;" vertex="1" parent="1">
          <mxGeometry x="400" y="50" width="100" height="670" as="geometry" />
        </mxCell>
        <mxCell id="M4f4rVje9hwKqoFKBTSC-30" value="" style="html=1;points=[];perimeter=orthogonalPerimeter;" vertex="1" parent="M4f4rVje9hwKqoFKBTSC-16">
          <mxGeometry x="45" y="190" width="10" height="80" as="geometry" />
        </mxCell>
        <mxCell id="M4f4rVje9hwKqoFKBTSC-35" value="" style="html=1;points=[];perimeter=orthogonalPerimeter;" vertex="1" parent="M4f4rVje9hwKqoFKBTSC-16">
          <mxGeometry x="45" y="290" width="10" height="90" as="geometry" />
        </mxCell>
        <mxCell id="M4f4rVje9hwKqoFKBTSC-42" value="&lt;font style=&quot;font-size: 9px;&quot;&gt;5 : cliquer sur btn S&#39;inscrire&amp;nbsp; &amp;nbsp;&lt;/font&gt;" style="html=1;verticalAlign=bottom;endArrow=block;rounded=0;" edge="1" parent="M4f4rVje9hwKqoFKBTSC-16">
          <mxGeometry width="80" relative="1" as="geometry">
            <mxPoint x="-320" y="360" as="sourcePoint" />
            <mxPoint x="45" y="360" as="targetPoint" />
          </mxGeometry>
        </mxCell>
        <mxCell id="M4f4rVje9hwKqoFKBTSC-40" value="&lt;font style=&quot;font-size: 9px;&quot;&gt;4 : Remplir les champs de formulaire&amp;nbsp;&amp;nbsp;&lt;/font&gt;" style="html=1;verticalAlign=bottom;endArrow=block;rounded=0;" edge="1" parent="M4f4rVje9hwKqoFKBTSC-16">
          <mxGeometry width="80" relative="1" as="geometry">
            <mxPoint x="-320" y="330" as="sourcePoint" />
            <mxPoint x="45" y="330" as="targetPoint" />
          </mxGeometry>
        </mxCell>
        <mxCell id="M4f4rVje9hwKqoFKBTSC-19" value="&lt;font style=&quot;font-size: 9px;&quot;&gt;1.1&amp;nbsp; : Affiche&amp;nbsp; l&#39;interface&lt;/font&gt;" style="html=1;verticalAlign=bottom;endArrow=open;dashed=1;endSize=8;exitX=0;exitY=0.95;rounded=0;" edge="1" parent="1">
          <mxGeometry relative="1" as="geometry">
            <mxPoint x="80" y="210" as="targetPoint" />
            <mxPoint x="285" y="210" as="sourcePoint" />
          </mxGeometry>
        </mxCell>
        <mxCell id="M4f4rVje9hwKqoFKBTSC-31" value="&lt;font style=&quot;font-size: 9px;&quot;&gt;3 : demande page inscription&lt;/font&gt;" style="html=1;verticalAlign=bottom;startArrow=none;endArrow=classicThin;startSize=8;rounded=0;startFill=0;endFill=1;exitX=1.067;exitY=0.5;exitDx=0;exitDy=0;exitPerimeter=0;" edge="1" target="M4f4rVje9hwKqoFKBTSC-30" parent="1" source="M4f4rVje9hwKqoFKBTSC-26">
          <mxGeometry relative="1" as="geometry">
            <mxPoint x="300" y="285" as="sourcePoint" />
          </mxGeometry>
        </mxCell>
        <mxCell id="M4f4rVje9hwKqoFKBTSC-38" value="&lt;font style=&quot;font-size: 9px;&quot;&gt;3.1 : interface de formulaire affiché&lt;/font&gt;" style="html=1;verticalAlign=bottom;endArrow=open;dashed=1;endSize=8;rounded=0;" edge="1" parent="1">
          <mxGeometry relative="1" as="geometry">
            <mxPoint x="440" y="350" as="sourcePoint" />
            <mxPoint x="80" y="350" as="targetPoint" />
          </mxGeometry>
        </mxCell>
        <mxCell id="M4f4rVje9hwKqoFKBTSC-46" value="Alt" style="shape=umlFrame;whiteSpace=wrap;html=1;fillColor=#fff2cc;strokeColor=#d6b656;" vertex="1" parent="1">
          <mxGeometry x="60" y="519" width="600" height="200" as="geometry" />
        </mxCell>
        <mxCell id="M4f4rVje9hwKqoFKBTSC-47" value="" style="line;strokeWidth=2;fillColor=none;align=left;verticalAlign=middle;spacingTop=-1;spacingLeft=3;spacingRight=3;rotatable=0;labelPosition=right;points=[];portConstraint=eastwest;dashed=1;" vertex="1" parent="1">
          <mxGeometry x="60" y="616" width="600" height="8" as="geometry" />
        </mxCell>
        <mxCell id="M4f4rVje9hwKqoFKBTSC-48" value="&lt;font style=&quot;font-size: 11px;&quot;&gt;Valide&lt;/font&gt;" style="html=1;strokeWidth=2;fillColor=#008a00;fontColor=#ffffff;strokeColor=#005700;" vertex="1" parent="1">
          <mxGeometry x="140" y="530" width="30" height="20" as="geometry" />
        </mxCell>
        <mxCell id="M4f4rVje9hwKqoFKBTSC-49" value="&lt;font style=&quot;font-size: 8px;&quot;&gt;InValide&lt;/font&gt;" style="html=1;strokeWidth=2;fillColor=#e51400;fontColor=#ffffff;strokeColor=#B20000;" vertex="1" parent="1">
          <mxGeometry x="140" y="630" width="30" height="20" as="geometry" />
        </mxCell>
        <mxCell id="M4f4rVje9hwKqoFKBTSC-52" value="&lt;font style=&quot;font-size: 9px;&quot;&gt;7 : Rediretcion vers page connexion&amp;nbsp;&lt;/font&gt;" style="html=1;verticalAlign=bottom;endArrow=open;dashed=1;endSize=8;rounded=0;fontSize=8;" edge="1" parent="1">
          <mxGeometry relative="1" as="geometry">
            <mxPoint x="610" y="580" as="sourcePoint" />
            <mxPoint x="80" y="580" as="targetPoint" />
          </mxGeometry>
        </mxCell>
        <mxCell id="M4f4rVje9hwKqoFKBTSC-53" value="" style="html=1;points=[];perimeter=orthogonalPerimeter;fontSize=8;strokeWidth=2;" vertex="1" parent="1">
          <mxGeometry x="445" y="640" width="10" height="50" as="geometry" />
        </mxCell>
        <mxCell id="M4f4rVje9hwKqoFKBTSC-56" value="&lt;font style=&quot;font-size: 9px;&quot;&gt;8 : Response server 401&lt;/font&gt;" style="html=1;verticalAlign=bottom;endArrow=open;dashed=1;endSize=8;rounded=0;fontSize=8;exitX=0.917;exitY=0.705;exitDx=0;exitDy=0;exitPerimeter=0;" edge="1" parent="1" source="M4f4rVje9hwKqoFKBTSC-46" target="M4f4rVje9hwKqoFKBTSC-53">
          <mxGeometry relative="1" as="geometry">
            <mxPoint x="580" y="660" as="sourcePoint" />
            <mxPoint x="500" y="660" as="targetPoint" />
          </mxGeometry>
        </mxCell>
        <mxCell id="M4f4rVje9hwKqoFKBTSC-58" value="9 : afifiche&amp;nbsp; message d&#39;erreur" style="html=1;verticalAlign=bottom;endArrow=open;dashed=1;endSize=8;rounded=0;fontSize=9;entryX=0.033;entryY=0.805;entryDx=0;entryDy=0;entryPerimeter=0;" edge="1" parent="1" target="M4f4rVje9hwKqoFKBTSC-46">
          <mxGeometry relative="1" as="geometry">
            <mxPoint x="445" y="680" as="sourcePoint" />
            <mxPoint x="365" y="680" as="targetPoint" />
          </mxGeometry>
        </mxCell>
      </root>
    </mxGraphModel>
  </diagram>
</mxfile>
